<?xml version="1.0" standalone="no"?>
<!DOCTYPE svg PUBLIC "-//W3C//DTD SVG 20010904//EN"
 "http://www.w3.org/TR/2001/REC-SVG-20010904/DTD/svg10.dtd">
<svg version="1.0" xmlns="http://www.w3.org/2000/svg"
 width="224.000000pt" height="224.000000pt" viewBox="0 0 224.000000 224.000000"
 preserveAspectRatio="xMidYMid meet">

<g transform="translate(0.000000,224.000000) scale(0.100000,-0.100000)"
fill="#bbf" stroke="none">
<path d="M410 1335 l0 -546 158 3 157 3 3 213 2 212 175 0 175 0 2 -212 3
-213 158 -3 157 -3 0 546 0 545 -160 0 -160 0 0 -205 0 -205 -175 0 -175 0 0
205 0 205 -160 0 -160 0 0 -545z"/>
<path d="M1472 533 l3 -178 178 -3 177 -2 0 180 0 180 -180 0 -180 0 2 -177z"/>
</g>
</svg>
