<?xml version="1.0" standalone="no"?>
<!DOCTYPE svg PUBLIC "-//W3C//DTD SVG 20010904//EN"
 "http://www.w3.org/TR/2001/REC-SVG-20010904/DTD/svg10.dtd">
<svg version="1.0" xmlns="http://www.w3.org/2000/svg"
 width="224.000000pt" height="224.000000pt" viewBox="0 0 224.000000 224.000000"
 preserveAspectRatio="xMidYMid meet">

<g transform="translate(0.000000,224.000000) scale(0.100000,-0.100000)"
fill="#009688" stroke="none">
<path d="M854 2170 c-53 -21 -69 -88 -33 -134 l20 -26 304 0 304 0 20 26 c28
35 26 77 -3 111 l-24 28 -284 2 c-155 1 -293 -2 -304 -7z"/>
<path d="M910 1761 l0 -189 -66 -163 c-36 -90 -73 -182 -81 -204 -8 -22 -21
-53 -28 -70 -7 -16 -25 -61 -40 -100 -15 -38 -33 -83 -40 -100 -12 -27 -28
-66 -95 -235 -10 -25 -35 -87 -55 -139 -20 -52 -42 -106 -49 -120 -8 -14 -19
-50 -25 -79 -23 -110 22 -194 134 -247 94 -44 125 -46 616 -43 l464 3 55 24
c77 35 108 59 138 111 46 78 32 166 -59 367 -10 24 -19 46 -19 49 0 7 -80 215
-104 269 -7 17 -22 55 -34 85 -41 108 -144 376 -162 420 -64 158 -60 134 -60
349 l0 201 -245 0 -245 0 0 -189z m423 -469 c71 -64 57 -190 -27 -230 -84 -41
-171 70 -135 172 27 76 109 106 162 58z m-322 -121 c25 -25 29 -37 29 -81 0
-44 -4 -56 -29 -81 -82 -81 -192 33 -136 141 30 58 89 67 136 21z m399 -315
c36 -9 89 -21 118 -27 29 -7 56 -17 61 -23 5 -6 30 -65 56 -131 26 -66 54
-133 61 -150 62 -146 67 -187 33 -245 -25 -43 -50 -64 -109 -93 -44 -22 -51
-22 -480 -22 l-435 0 -60 30 c-117 59 -148 139 -100 255 21 51 89 216 142 348
3 7 13 17 23 22 17 9 186 46 250 54 74 9 376 -3 440 -18z"/>
<path d="M813 710 c-73 -44 -20 -120 85 -120 81 0 122 27 122 81 0 31 -57 59
-120 59 -37 0 -66 -6 -87 -20z"/>
<path d="M1262 714 c-81 -56 -20 -131 99 -122 109 8 145 82 62 126 -32 18
-134 15 -161 -4z"/>
<path d="M723 1766 c-85 -27 -161 -93 -203 -176 l-21 -41 48 -21 c73 -33 163
-30 231 7 29 15 56 33 62 39 5 7 10 54 11 106 l2 95 -44 2 c-24 1 -63 -4 -86
-11z"/>
<path d="M1448 1774 c-5 -4 -8 -46 -8 -94 0 -98 6 -108 90 -151 59 -31 155
-31 223 -1 l48 21 -22 42 c-32 64 -103 134 -161 159 -54 23 -157 38 -170 24z"/>
</g>
</svg>
