<?xml version="1.0" standalone="no"?>
<!DOCTYPE svg PUBLIC "-//W3C//DTD SVG 20010904//EN"
 "http://www.w3.org/TR/2001/REC-SVG-20010904/DTD/svg10.dtd">
<svg version="1.0" xmlns="http://www.w3.org/2000/svg"
 width="203.000000pt" height="202.000000pt" viewBox="0 0 203.000000 202.000000"
 preserveAspectRatio="xMidYMid meet">

<g transform="translate(0.000000,202.000000) scale(0.100000,-0.100000)"
fill="#1883a3" stroke="#0ff">
<path d="M397 1839 c-86 -17 -159 -77 -199 -164 l-23 -50 -3 -569 c-2 -370 1
-593 8 -638 16 -105 69 -176 165 -220 l50 -23 620 0 620 0 50 23 c96 44 149
115 165 220 7 45 10 268 8 638 l-3 569 -23 50 c-43 94 -114 148 -214 165 -79
12 -1153 12 -1221 -1z m680 -269 c17 -10 36 -28 42 -39 10 -17 24 -20 140 -23
141 -3 159 -10 205 -72 20 -27 21 -41 24 -444 3 -468 2 -478 -66 -530 l-35
-27 -351 -3 c-396 -3 -409 -1 -460 61 l-31 39 0 438 c0 427 1 439 21 466 46
62 64 69 205 72 116 3 130 6 140 23 15 29 69 59 104 59 17 0 44 -9 62 -20z"/>
<path d="M970 1537 c-8 -7 -23 -24 -33 -39 -14 -22 -25 -28 -52 -28 l-35 0 0
-48 c0 -26 5 -53 12 -60 8 -8 57 -12 153 -12 96 0 145 4 153 12 7 7 12 34 12
60 l0 48 -35 0 c-27 0 -38 6 -52 28 -10 15 -25 32 -33 39 -19 16 -71 16 -90 0z"/>
<path d="M643 1460 c-13 -5 -32 -24 -43 -42 -19 -32 -20 -50 -20 -446 0 -453
0 -456 60 -487 43 -22 707 -22 750 0 60 31 60 34 60 487 0 395 -1 414 -20 446
-25 41 -54 52 -141 52 l-69 0 0 -49 c0 -34 -6 -56 -21 -75 l-20 -26 -164 0
-164 0 -20 26 c-15 19 -21 41 -21 75 l0 49 -72 -1 c-40 0 -83 -4 -95 -9z m325
-407 c-3 -16 -17 -18 -133 -18 -116 0 -130 2 -133 18 -3 15 8 17 133 17 125 0
136 -2 133 -17z m352 -3 c0 -20 -5 -20 -132 -18 -117 3 -133 5 -136 21 -3 15
8 17 132 17 130 0 136 -1 136 -20z m-350 -325 c0 -13 -22 -15 -135 -15 -113 0
-135 2 -135 15 0 13 22 15 135 15 113 0 135 -2 135 -15z m350 0 c0 -6 -53 -11
-135 -13 -117 -2 -135 0 -135 13 0 13 18 15 135 13 82 -2 135 -7 135 -13z"/>
</g>
</svg>
