<svg xmlns="http://www.w3.org/2000/svg" xml:space="preserve" viewBox="0 0 1631 512.72"><defs><clipPath id="a"><path d="M396.86 462.5c-14.37 10.61-36.51 35.17-36.51 35.17l-28.1 29.34 7.48 7.53s23.04-22.64 28.8-28.42c5.78-5.77 15.71-16.3 31.14-27.1 10.74-7.52 31.36-16.67 45-1.8 10.3 11.23 5.42 24.1 5.42 24.1l11.02 9.9s18.12-25.6 5.79-45.02c-8.2-12.91-22.8-17.56-34.18-18.12l-1.4-.03c-11.3 0-23.82 6.6-34.46 14.46"/></clipPath><clipPath id="c"><path d="M215 432h247v111H215Zm0 0"/></clipPath><clipPath id="d"><path d="M331.5 522.77c37.7 19.46 63.21 23.91 94.18 15.46 22.36-6.1 35.43-27 35.43-27l-11.02-9.91s-8.54 28.16-45.13 24.27c-19.83-2.11-35.62-7.65-64.34-28.32-32.88-23.66-54.06-58.33-54.06-58.33s-7.63 4.85-24.22 4.3c-18.21-.6-46.4-10.26-46.4-10.26s68.72 65.62 115.55 89.79"/></clipPath><clipPath id="h"><path d="M211 519h246v110H211Zm0 0"/></clipPath><clipPath id="i"><path d="M246.44 523.68c-22.37 6.1-35.43 27-35.43 27l11.02 9.9s8.54-28.15 45.13-24.26c19.83 2.11 35.61 7.65 64.34 28.32 32.87 23.66 54.05 58.33 54.05 58.33s7.64-4.86 24.22-4.31c18.22.6 46.4 10.26 46.4 10.26s-68.72-65.62-115.55-89.78c-25.68-13.25-45.7-19.55-65.63-19.55-9.35 0-18.67 1.39-28.55 4.09"/></clipPath><clipPath id="k"><path d="M200 527h140v87H200Zm0 0"/></clipPath><clipPath id="l"><path d="M303.58 555.78c-5.77 5.77-15.7 16.31-31.14 27.11-10.73 7.52-31.35 16.67-45 1.8-10.3-11.24-5.41-24.1-5.41-24.1l-11.02-9.9s-18.12 25.59-5.8 45.02c8.2 12.9 22.8 17.56 34.2 18.12 11.66.57 24.77-6.25 35.85-14.43 14.36-10.6 36.5-35.17 36.5-35.17l27.97-29.7-7.48-7.52s-22.9 23-28.67 28.77"/></clipPath><symbol id="n" stroke-linejoin="round" stroke-miterlimit="4" stroke-opacity=".99" stroke-width="0" overflow="visible" paint-order="stroke fill markers"><path d="M11.67-189.73H163.4l-6.28 48.93-13.42-2.01-5.29-33h-71v73.54h43.79l6.51-18.45 13.7-2.01L127.36-63l-13.43 2.27-4.77-27.49H67.4l-.25 69.52 36.27 5.9L101.39 0H11.17l1.25-11.3 25.47-7.15V-171.8l-27.72-6.39zm0 0"/></symbol><symbol id="o" stroke-linejoin="round" stroke-miterlimit="4" stroke-opacity=".99" stroke-width="0" overflow="visible" paint-order="stroke fill markers"><path d="M79.94-65.25q-23.72 4.64-33.7 12.73-9.97 8.1-9.97 19.77 0 6.52 4.64 12.11t12.54 5.58q7.16 0 14.57-4.27t11.92-9.4zm26.6 68.02q-12.04 0-17.82-6.2-5.77-6.22-5.77-14.26v-2.26H81.2q-1.75 3.51-4.83 7.15t-8.03 7.6-12.49 6.45q-7.53 2.52-16.31 2.52-12.67 0-21.34-7.97T9.53-25.72q0-8.66 4.08-16.58 4.08-7.9 12.3-14.6Q34.14-63.63 48-68.2t31.94-5.83v-8.42q0-8.28-1.27-15.11a47 47 0 0 0-4.2-12.74q-2.94-5.9-8.4-9.17t-13.12-3.26q-4.77 0-7.84 1.89-3.08 1.87-4.64 5.95a49 49 0 0 0-2.4 8.49q-.8 4.39-1.55 11.28-.26 3.26-.5 4.9-3.15 0-5.41-.18-2.25-.2-5.45-1.08t-5.29-2.44q-2.06-1.57-3.56-4.7-1.5-3.14-1.5-7.41 0-7.9 8.66-15.44t20.76-11.8 22.79-4.26q20.2 0 28.98 11.3 8.78 11.28 8.78 35.75v55.47q0 10.67 3.2 14.68t13.74 5.77l7.53 1.26L127.5-.25q-2.52.37-6.28 1.19-3.77.8-7.22 1.31-3.44.52-7.45.52m0 0"/></symbol><symbol id="p" stroke-miterlimit="4" stroke-opacity="1" stroke-width="0" overflow="visible" paint-order="stroke fill markers"><path d="M20.08-7.53v-161.5l-23.22-8.16 2.01-11.54L41.17-192l3.76 3.52v58.98l-2.25 15.81h1.75q20.7-23.34 43.67-23.34 22.08 0 35.57 18.01 13.5 18 13.5 46.99 0 17.56-6.22 32.12-6.2 14.57-16.69 23.91-10.47 9.34-23.97 14.44a80 80 0 0 1-28.42 5.08q-24.34 0-41.78-11.05zm89.84-54.72q0-7.39-.81-14.48t-3.08-14.63q-2.25-7.53-5.76-13.1-3.52-5.59-9.36-9.17-5.83-3.57-13.24-3.57-18.94 0-32.75 14.67v78.81q4.77 4.77 13.55 7.6 8.8 2.82 18.7 2.82 14.06 0 23.4-12.42 9.35-12.43 9.35-36.53m0 0"/></symbol><symbol id="q" stroke-miterlimit="4" stroke-opacity="1" stroke-width="0" overflow="visible" paint-order="stroke fill markers"><path d="M99.77-102.78q-8.79-7.52-16.82-7.52-7.15 0-14.68 8.78-7.54 8.8-9.79 24.47v58.6l35.25 5.15L92.23 0H8.03l1.75-11.3L33-17.44v-93.62l-24.72-7.4L10.3-130l43.65-5.78 3.02 3.51L54.47-97h3q5.77-19.83 15.69-30.55t20.07-10.73q8.16 0 13.24 5.14 5.1 5.14 5.1 12.17 0 10.03-11.8 18.19m0 0"/></symbol><symbol id="r" stroke-miterlimit="4" stroke-opacity="1" stroke-width="0" overflow="visible" paint-order="stroke fill markers"><path d="m9.28-12.05 23.22-5.64v-93.87l-23.22-8.4 2.02-11.56 42.92-3.51 3.75 3.76v113.58l24.48 5.4L80.7 0H7.53ZM43.8-199.4q7.65 0 13.17 5.1 5.53 5.08 5.53 12.36 0 7.65-5.6 13.17a18 18 0 0 1-13.1 5.51q-7.54 0-12.82-5.57-5.26-5.58-5.26-13.36 0-7.28 5.39-12.24 5.4-4.97 12.69-4.97zm0 0"/></symbol><symbol id="s" stroke-miterlimit="4" stroke-opacity="1" stroke-width="0" overflow="visible" paint-order="stroke fill markers"><path d="M83.2-13.67q7.02 0 13.24-1.63 6.21-1.64 9.53-3.26a91 91 0 0 0 8.1-4.66l3.76 8.9q-6.27 7.67-19.64 13.26-13.36 5.58-27.53 5.58-17.83 0-31.77-9.41-13.92-9.42-21.2-24.84-7.27-15.44-7.27-33.77 0-16.44 5.46-30.55t14.54-23.4 20.72-14.57a58 58 0 0 1 24.03-5.26q18.06 0 27.4 6.78 9.37 6.77 9.37 16.56 0 6.9-4.97 11.03Q102-98.76 92.6-98q-2-4.78-3.9-8.4-1.87-3.65-4.94-7.79-3.09-4.13-7.1-6.47-4.02-2.32-8.78-2.32-13.68 0-21.84 12.5Q37.89-98 37.89-77.3q0 7.91 1.63 16.38 1.64 8.47 5.21 17t8.72 15.19q5.16 6.64 12.86 10.85a35 35 0 0 0 16.9 4.2m0 0"/></symbol><linearGradient id="b" x1="-.67" x2="1.36" y1="0" y2="0" gradientTransform="rotate(45 -385.41 697.61)scale(81.368)" gradientUnits="userSpaceOnUse"><stop offset="0" stop-color="#00adef"/><stop offset=".34" stop-color="#01acee"/><stop offset=".35" stop-color="#02abed"/><stop offset=".35" stop-color="#03aaed"/><stop offset=".36" stop-color="#04aaec"/><stop offset=".37" stop-color="#05a9ec"/><stop offset=".37" stop-color="#05a9eb"/><stop offset=".38" stop-color="#06a8eb"/><stop offset=".38" stop-color="#07a8ea"/><stop offset=".39" stop-color="#07a7ea"/><stop offset=".39" stop-color="#08a7ea"/><stop offset=".4" stop-color="#08a6e9"/><stop offset=".41" stop-color="#09a5e8"/><stop offset=".41" stop-color="#0aa5e8"/><stop offset=".41" stop-color="#0aa4e7"/><stop offset=".42" stop-color="#0ba4e7"/><stop offset=".42" stop-color="#0ba3e7"/><stop offset=".43" stop-color="#0ca3e6"/><stop offset=".43" stop-color="#0ca2e6"/><stop offset=".43" stop-color="#0da2e6"/><stop offset=".44" stop-color="#0da2e5"/><stop offset=".45" stop-color="#0ea1e5"/><stop offset=".45" stop-color="#0fa0e4"/><stop offset=".45" stop-color="#0fa0e4"/><stop offset=".47" stop-color="#109fe3"/><stop offset=".47" stop-color="#119ee2"/><stop offset=".48" stop-color="#129de2"/><stop offset=".48" stop-color="#129de1"/><stop offset=".49" stop-color="#139ce1"/><stop offset=".49" stop-color="#149ce0"/><stop offset=".5" stop-color="#149be0"/><stop offset=".5" stop-color="#159be0"/><stop offset=".5" stop-color="#159adf"/><stop offset=".51" stop-color="#169adf"/><stop offset=".52" stop-color="#1699de"/><stop offset=".52" stop-color="#1798de"/><stop offset=".52" stop-color="#1798dd"/><stop offset=".53" stop-color="#1897dd"/><stop offset=".54" stop-color="#1997dc"/><stop offset=".54" stop-color="#1996dc"/><stop offset=".54" stop-color="#1a96dc"/><stop offset=".55" stop-color="#1a95db"/><stop offset=".55" stop-color="#1a95db"/><stop offset=".56" stop-color="#1b94db"/><stop offset=".56" stop-color="#1b94da"/><stop offset=".56" stop-color="#1c93da"/><stop offset=".57" stop-color="#1c93d9"/><stop offset=".57" stop-color="#1d92d9"/><stop offset=".57" stop-color="#1d92d9"/><stop offset=".58" stop-color="#1e91d8"/><stop offset=".58" stop-color="#1e91d8"/><stop offset=".59" stop-color="#1f90d8"/><stop offset=".59" stop-color="#1f90d7"/><stop offset=".59" stop-color="#1f90d7"/><stop offset=".6" stop-color="#208fd7"/><stop offset=".6" stop-color="#208fd6"/><stop offset=".6" stop-color="#218ed6"/><stop offset=".61" stop-color="#218ed5"/><stop offset=".61" stop-color="#228dd5"/><stop offset=".62" stop-color="#228dd5"/><stop offset=".62" stop-color="#238cd4"/><stop offset=".63" stop-color="#238cd4"/><stop offset=".63" stop-color="#238bd4"/><stop offset=".63" stop-color="#248bd3"/><stop offset=".64" stop-color="#248ad3"/><stop offset=".64" stop-color="#258ad3"/><stop offset=".65" stop-color="#2589d2"/><stop offset=".65" stop-color="#2689d2"/><stop offset=".65" stop-color="#2688d1"/><stop offset=".66" stop-color="#2688d1"/><stop offset=".66" stop-color="#2787d1"/><stop offset=".66" stop-color="#2787d0"/><stop offset=".67" stop-color="#2886d0"/><stop offset=".67" stop-color="#2886d0"/><stop offset=".68" stop-color="#2985cf"/><stop offset=".68" stop-color="#2985cf"/><stop offset=".68" stop-color="#2984ce"/><stop offset=".69" stop-color="#2a84ce"/><stop offset=".69" stop-color="#2a83ce"/><stop offset=".69" stop-color="#2b83cd"/><stop offset=".7" stop-color="#2b82cd"/><stop offset=".7" stop-color="#2c82cd"/><stop offset=".71" stop-color="#2c81cc"/><stop offset=".71" stop-color="#2c81cc"/><stop offset=".71" stop-color="#2d80cc"/><stop offset=".72" stop-color="#2d80cb"/><stop offset=".72" stop-color="#2e7fcb"/><stop offset=".73" stop-color="#2e7fca"/><stop offset=".73" stop-color="#2f7eca"/><stop offset=".73" stop-color="#2f7eca"/><stop offset=".74" stop-color="#2f7dc9"/><stop offset=".74" stop-color="#307dc9"/><stop offset=".75" stop-color="#307cc9"/><stop offset=".75" stop-color="#317bc8"/><stop offset=".75" stop-color="#317bc8"/><stop offset=".76" stop-color="#327ac7"/><stop offset=".76" stop-color="#327ac7"/><stop offset=".77" stop-color="#3279c7"/><stop offset=".77" stop-color="#3379c6"/><stop offset=".77" stop-color="#3378c6"/><stop offset=".78" stop-color="#3478c6"/><stop offset=".78" stop-color="#3477c5"/><stop offset=".79" stop-color="#3477c5"/><stop offset=".79" stop-color="#3576c4"/><stop offset=".79" stop-color="#3576c4"/><stop offset=".8" stop-color="#3675c4"/><stop offset=".8" stop-color="#3675c3"/><stop offset=".81" stop-color="#3774c3"/><stop offset=".81" stop-color="#3773c3"/><stop offset=".81" stop-color="#3773c2"/><stop offset=".82" stop-color="#3872c2"/><stop offset=".82" stop-color="#3872c1"/><stop offset=".83" stop-color="#3872c1"/><stop offset=".84" stop-color="#3871c1"/><stop offset=".88" stop-color="#3871c1"/><stop offset="1" stop-color="#3871c1"/></linearGradient><linearGradient id="g" x1="0" x2="1.1" y1="0" y2="0" gradientTransform="rotate(45 -343.42 506.73)scale(230.02)" gradientUnits="userSpaceOnUse"><stop offset="0" stop-color="#00adef"/><stop offset="0" stop-color="#00adef"/><stop offset=".01" stop-color="#01adef"/><stop offset=".01" stop-color="#01acee"/><stop offset=".02" stop-color="#01acee"/><stop offset=".02" stop-color="#02acee"/><stop offset=".03" stop-color="#02abee"/><stop offset=".03" stop-color="#02abed"/><stop offset=".04" stop-color="#02abed"/><stop offset=".04" stop-color="#03abed"/><stop offset=".04" stop-color="#03abed"/><stop offset=".05" stop-color="#03aaed"/><stop offset=".05" stop-color="#03aaed"/><stop offset=".06" stop-color="#04aaec"/><stop offset=".07" stop-color="#04a9ec"/><stop offset=".07" stop-color="#05a9ec"/><stop offset=".07" stop-color="#05a9eb"/><stop offset=".08" stop-color="#05a9eb"/><stop offset=".08" stop-color="#06a8eb"/><stop offset=".09" stop-color="#06a8eb"/><stop offset=".09" stop-color="#06a8ea"/><stop offset=".1" stop-color="#07a8ea"/><stop offset=".1" stop-color="#07a7ea"/><stop offset=".11" stop-color="#07a7ea"/><stop offset=".11" stop-color="#08a7e9"/><stop offset=".12" stop-color="#08a6e9"/><stop offset=".13" stop-color="#08a6e9"/><stop offset=".13" stop-color="#09a6e9"/><stop offset=".13" stop-color="#09a5e9"/><stop offset=".14" stop-color="#09a5e8"/><stop offset=".14" stop-color="#09a5e8"/><stop offset=".14" stop-color="#0aa5e8"/><stop offset=".15" stop-color="#0aa5e8"/><stop offset=".15" stop-color="#0aa4e8"/><stop offset=".16" stop-color="#0aa4e7"/><stop offset=".16" stop-color="#0ba4e7"/><stop offset=".16" stop-color="#0ba4e7"/><stop offset=".17" stop-color="#0ba3e7"/><stop offset=".17" stop-color="#0ba3e7"/><stop offset=".18" stop-color="#0ca3e6"/><stop offset=".18" stop-color="#0ca3e6"/><stop offset=".19" stop-color="#0ca2e6"/><stop offset=".19" stop-color="#0da2e6"/><stop offset=".2" stop-color="#0da2e5"/><stop offset=".2" stop-color="#0da2e5"/><stop offset=".2" stop-color="#0da1e5"/><stop offset=".21" stop-color="#0ea1e5"/><stop offset=".21" stop-color="#0ea1e5"/><stop offset=".21" stop-color="#0ea1e4"/><stop offset=".22" stop-color="#0ea0e4"/><stop offset=".22" stop-color="#0fa0e4"/><stop offset=".23" stop-color="#0fa0e4"/><stop offset=".23" stop-color="#0fa0e4"/><stop offset=".23" stop-color="#109fe3"/><stop offset=".25" stop-color="#109fe3"/><stop offset=".25" stop-color="#119fe3"/><stop offset=".25" stop-color="#119ee3"/><stop offset=".26" stop-color="#119ee2"/><stop offset=".26" stop-color="#119ee2"/><stop offset=".27" stop-color="#129ee2"/><stop offset=".27" stop-color="#129de2"/><stop offset=".27" stop-color="#129de2"/><stop offset=".28" stop-color="#129de1"/><stop offset=".28" stop-color="#139de1"/><stop offset=".28" stop-color="#139ce1"/><stop offset=".29" stop-color="#139ce1"/><stop offset=".3" stop-color="#149ce0"/><stop offset=".3" stop-color="#149be0"/><stop offset=".31" stop-color="#149be0"/><stop offset=".31" stop-color="#159be0"/><stop offset=".32" stop-color="#159adf"/><stop offset=".32" stop-color="#159adf"/><stop offset=".32" stop-color="#159adf"/><stop offset=".33" stop-color="#169adf"/><stop offset=".33" stop-color="#1699df"/><stop offset=".34" stop-color="#1699de"/><stop offset=".34" stop-color="#1699de"/><stop offset=".34" stop-color="#1799de"/><stop offset=".35" stop-color="#1798de"/><stop offset=".35" stop-color="#1798de"/><stop offset=".35" stop-color="#1798dd"/><stop offset=".36" stop-color="#1898dd"/><stop offset=".36" stop-color="#1897dd"/><stop offset=".37" stop-color="#1897dd"/><stop offset=".38" stop-color="#1997dc"/><stop offset=".38" stop-color="#1997dc"/><stop offset=".38" stop-color="#1996dc"/><stop offset=".39" stop-color="#1996dc"/><stop offset=".4" stop-color="#1a96db"/><stop offset=".4" stop-color="#1a95db"/><stop offset=".41" stop-color="#1a95db"/><stop offset=".41" stop-color="#1b94db"/><stop offset=".41" stop-color="#1b94db"/><stop offset=".42" stop-color="#1b94da"/><stop offset=".42" stop-color="#1b94da"/><stop offset=".43" stop-color="#1c93da"/><stop offset=".43" stop-color="#1c93da"/><stop offset=".43" stop-color="#1c93da"/><stop offset=".44" stop-color="#1c93d9"/><stop offset=".44" stop-color="#1d92d9"/><stop offset=".45" stop-color="#1d92d9"/><stop offset=".46" stop-color="#1e91d8"/><stop offset=".47" stop-color="#1e91d8"/><stop offset=".47" stop-color="#1f90d8"/><stop offset=".48" stop-color="#1f90d7"/><stop offset=".48" stop-color="#1f90d7"/><stop offset=".48" stop-color="#1f90d7"/><stop offset=".49" stop-color="#208fd7"/><stop offset=".49" stop-color="#208fd7"/><stop offset=".5" stop-color="#208fd6"/><stop offset=".5" stop-color="#208fd6"/><stop offset=".5" stop-color="#218ed6"/><stop offset=".51" stop-color="#218ed6"/><stop offset=".52" stop-color="#218ed5"/><stop offset=".52" stop-color="#228dd5"/><stop offset=".52" stop-color="#228dd5"/><stop offset=".53" stop-color="#228dd5"/><stop offset=".53" stop-color="#228cd5"/><stop offset=".54" stop-color="#228cd4"/><stop offset=".54" stop-color="#238cd4"/><stop offset=".54" stop-color="#238cd4"/><stop offset=".55" stop-color="#238bd4"/><stop offset=".55" stop-color="#238bd4"/><stop offset=".56" stop-color="#248bd3"/><stop offset=".56" stop-color="#248bd3"/><stop offset=".56" stop-color="#248ad3"/><stop offset=".57" stop-color="#248ad3"/><stop offset=".57" stop-color="#258ad3"/><stop offset=".57" stop-color="#258ad2"/><stop offset=".58" stop-color="#2589d2"/><stop offset=".58" stop-color="#2589d2"/><stop offset=".59" stop-color="#2689d2"/><stop offset=".59" stop-color="#2688d2"/><stop offset=".59" stop-color="#2688d1"/><stop offset=".6" stop-color="#2688d1"/><stop offset=".6" stop-color="#2788d1"/><stop offset=".6" stop-color="#2787d1"/><stop offset=".61" stop-color="#2787d1"/><stop offset=".61" stop-color="#2787d0"/><stop offset=".62" stop-color="#2787d0"/><stop offset=".62" stop-color="#2886d0"/><stop offset=".63" stop-color="#2886d0"/><stop offset=".63" stop-color="#2886cf"/><stop offset=".65" stop-color="#2985cf"/><stop offset=".65" stop-color="#2984cf"/><stop offset=".65" stop-color="#2a84ce"/><stop offset=".66" stop-color="#2a84ce"/><stop offset=".66" stop-color="#2a84ce"/><stop offset=".66" stop-color="#2a83ce"/><stop offset=".67" stop-color="#2a83ce"/><stop offset=".67" stop-color="#2b83cd"/><stop offset=".68" stop-color="#2b82cd"/><stop offset=".68" stop-color="#2b82cd"/><stop offset=".68" stop-color="#2b82cd"/><stop offset=".69" stop-color="#2c82cd"/><stop offset=".69" stop-color="#2c81cc"/><stop offset=".7" stop-color="#2c81cc"/><stop offset=".7" stop-color="#2d81cc"/><stop offset=".71" stop-color="#2d80cc"/><stop offset=".71" stop-color="#2d80cb"/><stop offset=".71" stop-color="#2d80cb"/><stop offset=".72" stop-color="#2e7fcb"/><stop offset=".72" stop-color="#2e7fcb"/><stop offset=".73" stop-color="#2e7fcb"/><stop offset=".73" stop-color="#2e7fca"/><stop offset=".73" stop-color="#2e7eca"/><stop offset=".74" stop-color="#2f7eca"/><stop offset=".74" stop-color="#2f7eca"/><stop offset=".75" stop-color="#2f7dca"/><stop offset=".75" stop-color="#2f7dc9"/><stop offset=".75" stop-color="#307dc9"/><stop offset=".76" stop-color="#307dc9"/><stop offset=".76" stop-color="#307cc9"/><stop offset=".77" stop-color="#307cc9"/><stop offset=".77" stop-color="#307cc8"/><stop offset=".77" stop-color="#317bc8"/><stop offset=".79" stop-color="#317bc8"/><stop offset=".79" stop-color="#327ac7"/><stop offset=".79" stop-color="#327ac7"/><stop offset=".8" stop-color="#327ac7"/><stop offset=".8" stop-color="#3279c7"/><stop offset=".81" stop-color="#3379c7"/><stop offset=".81" stop-color="#3379c6"/><stop offset=".81" stop-color="#3379c6"/><stop offset=".82" stop-color="#3378c6"/><stop offset=".82" stop-color="#3378c6"/><stop offset=".82" stop-color="#3478c6"/><stop offset=".83" stop-color="#3477c5"/><stop offset=".83" stop-color="#3477c5"/><stop offset=".84" stop-color="#3477c5"/><stop offset=".84" stop-color="#3577c5"/><stop offset=".84" stop-color="#3576c5"/><stop offset=".85" stop-color="#3576c4"/><stop offset=".85" stop-color="#3576c4"/><stop offset=".85" stop-color="#3575c4"/><stop offset=".86" stop-color="#3675c4"/><stop offset=".86" stop-color="#3675c4"/><stop offset=".87" stop-color="#3674c3"/><stop offset=".87" stop-color="#3674c3"/><stop offset=".88" stop-color="#3774c3"/><stop offset=".88" stop-color="#3774c3"/><stop offset=".88" stop-color="#3773c2"/><stop offset=".89" stop-color="#3773c2"/><stop offset=".89" stop-color="#3773c2"/><stop offset=".9" stop-color="#3872c2"/><stop offset=".9" stop-color="#3872c2"/><stop offset=".9" stop-color="#3872c1"/><stop offset=".91" stop-color="#3871c1"/><stop offset=".94" stop-color="#3871c1"/><stop offset="1" stop-color="#3871c1"/></linearGradient><linearGradient id="j" x1="-.09" x2="1" y1="0" y2="0" gradientTransform="rotate(45 -487.32 557.95)scale(230.02)" gradientUnits="userSpaceOnUse"><stop offset="0" stop-color="#3871c1"/><stop offset=".06" stop-color="#3871c1"/><stop offset=".08" stop-color="#3871c1"/><stop offset=".09" stop-color="#3872c1"/><stop offset=".09" stop-color="#3872c2"/><stop offset=".09" stop-color="#3872c2"/><stop offset=".1" stop-color="#3873c2"/><stop offset=".1" stop-color="#3773c2"/><stop offset=".1" stop-color="#3773c2"/><stop offset=".11" stop-color="#3774c3"/><stop offset=".11" stop-color="#3774c3"/><stop offset=".12" stop-color="#3674c3"/><stop offset=".12" stop-color="#3674c3"/><stop offset=".13" stop-color="#3675c3"/><stop offset=".13" stop-color="#3675c4"/><stop offset=".13" stop-color="#3675c4"/><stop offset=".14" stop-color="#3576c4"/><stop offset=".14" stop-color="#3576c4"/><stop offset=".14" stop-color="#3576c4"/><stop offset=".15" stop-color="#3576c5"/><stop offset=".15" stop-color="#3477c5"/><stop offset=".16" stop-color="#3477c5"/><stop offset=".16" stop-color="#3477c5"/><stop offset=".16" stop-color="#3478c5"/><stop offset=".17" stop-color="#3478c6"/><stop offset=".17" stop-color="#3378c6"/><stop offset=".18" stop-color="#3378c6"/><stop offset=".18" stop-color="#3379c6"/><stop offset=".18" stop-color="#3379c6"/><stop offset=".19" stop-color="#3279c7"/><stop offset=".19" stop-color="#327ac7"/><stop offset=".2" stop-color="#327ac7"/><stop offset=".2" stop-color="#327ac7"/><stop offset=".2" stop-color="#327ac7"/><stop offset=".21" stop-color="#317bc8"/><stop offset=".21" stop-color="#317bc8"/><stop offset=".21" stop-color="#317bc8"/><stop offset=".22" stop-color="#317cc8"/><stop offset=".22" stop-color="#307cc8"/><stop offset=".23" stop-color="#307cc9"/><stop offset=".23" stop-color="#307cc9"/><stop offset=".23" stop-color="#307dc9"/><stop offset=".24" stop-color="#2f7dc9"/><stop offset=".24" stop-color="#2f7dc9"/><stop offset=".25" stop-color="#2f7eca"/><stop offset=".25" stop-color="#2f7eca"/><stop offset=".25" stop-color="#2f7eca"/><stop offset=".26" stop-color="#2e7eca"/><stop offset=".26" stop-color="#2e7fca"/><stop offset=".27" stop-color="#2e7fcb"/><stop offset=".27" stop-color="#2e7fcb"/><stop offset=".27" stop-color="#2d7fcb"/><stop offset=".28" stop-color="#2d80cb"/><stop offset=".28" stop-color="#2d80cb"/><stop offset=".28" stop-color="#2d80cc"/><stop offset=".29" stop-color="#2d81cc"/><stop offset=".29" stop-color="#2c81cc"/><stop offset=".3" stop-color="#2c81cc"/><stop offset=".3" stop-color="#2c81cc"/><stop offset=".3" stop-color="#2c82cd"/><stop offset=".31" stop-color="#2b82cd"/><stop offset=".31" stop-color="#2b82cd"/><stop offset=".32" stop-color="#2b83cd"/><stop offset=".32" stop-color="#2b83cd"/><stop offset=".32" stop-color="#2a83ce"/><stop offset=".33" stop-color="#2a83ce"/><stop offset=".33" stop-color="#2a84ce"/><stop offset=".34" stop-color="#2a84ce"/><stop offset=".34" stop-color="#2a84ce"/><stop offset=".34" stop-color="#2984cf"/><stop offset=".35" stop-color="#2985cf"/><stop offset=".35" stop-color="#2985cf"/><stop offset=".35" stop-color="#2985cf"/><stop offset=".36" stop-color="#2886cf"/><stop offset=".36" stop-color="#2886d0"/><stop offset=".37" stop-color="#2886d0"/><stop offset=".37" stop-color="#2886d0"/><stop offset=".38" stop-color="#2787d0"/><stop offset=".38" stop-color="#2787d0"/><stop offset=".38" stop-color="#2787d1"/><stop offset=".39" stop-color="#2787d1"/><stop offset=".39" stop-color="#2788d1"/><stop offset=".4" stop-color="#2688d1"/><stop offset=".4" stop-color="#2688d1"/><stop offset=".4" stop-color="#2688d2"/><stop offset=".41" stop-color="#2689d2"/><stop offset=".41" stop-color="#2589d2"/><stop offset=".41" stop-color="#2589d2"/><stop offset=".42" stop-color="#258ad2"/><stop offset=".42" stop-color="#258ad3"/><stop offset=".43" stop-color="#248ad3"/><stop offset=".43" stop-color="#248ad3"/><stop offset=".43" stop-color="#248bd3"/><stop offset=".44" stop-color="#248bd3"/><stop offset=".44" stop-color="#238bd4"/><stop offset=".45" stop-color="#238bd4"/><stop offset=".45" stop-color="#238cd4"/><stop offset=".45" stop-color="#238cd4"/><stop offset=".46" stop-color="#238cd4"/><stop offset=".46" stop-color="#228cd5"/><stop offset=".47" stop-color="#228dd5"/><stop offset=".47" stop-color="#228dd5"/><stop offset=".47" stop-color="#228dd5"/><stop offset=".48" stop-color="#218dd5"/><stop offset=".48" stop-color="#218ed6"/><stop offset=".48" stop-color="#218ed6"/><stop offset=".49" stop-color="#218ed6"/><stop offset=".49" stop-color="#208ed6"/><stop offset=".5" stop-color="#208fd6"/><stop offset=".5" stop-color="#208fd6"/><stop offset=".5" stop-color="#208fd7"/><stop offset=".51" stop-color="#1f90d7"/><stop offset=".51" stop-color="#1f90d7"/><stop offset=".52" stop-color="#1f90d7"/><stop offset=".52" stop-color="#1f90d7"/><stop offset=".52" stop-color="#1e91d8"/><stop offset=".53" stop-color="#1e91d8"/><stop offset=".53" stop-color="#1e91d8"/><stop offset=".54" stop-color="#1e91d8"/><stop offset=".54" stop-color="#1e92d8"/><stop offset=".54" stop-color="#1d92d9"/><stop offset=".55" stop-color="#1d92d9"/><stop offset=".55" stop-color="#1d92d9"/><stop offset=".56" stop-color="#1d93d9"/><stop offset=".56" stop-color="#1c93d9"/><stop offset=".56" stop-color="#1c93da"/><stop offset=".57" stop-color="#1c93da"/><stop offset=".57" stop-color="#1c94da"/><stop offset=".57" stop-color="#1b94da"/><stop offset=".58" stop-color="#1b94da"/><stop offset=".58" stop-color="#1b94db"/><stop offset=".59" stop-color="#1b95db"/><stop offset=".59" stop-color="#1a95db"/><stop offset=".59" stop-color="#1a95db"/><stop offset=".6" stop-color="#1a95db"/><stop offset=".6" stop-color="#1a96dc"/><stop offset=".6" stop-color="#1996dc"/><stop offset=".61" stop-color="#1996dc"/><stop offset=".61" stop-color="#1996dc"/><stop offset=".62" stop-color="#1997dc"/><stop offset=".62" stop-color="#1897dd"/><stop offset=".63" stop-color="#1897dd"/><stop offset=".63" stop-color="#1897dd"/><stop offset=".63" stop-color="#1898dd"/><stop offset=".64" stop-color="#1798dd"/><stop offset=".64" stop-color="#1798dd"/><stop offset=".65" stop-color="#1798de"/><stop offset=".65" stop-color="#1799de"/><stop offset=".65" stop-color="#1799de"/><stop offset=".66" stop-color="#1699de"/><stop offset=".66" stop-color="#1699de"/><stop offset=".66" stop-color="#1699df"/><stop offset=".67" stop-color="#169adf"/><stop offset=".67" stop-color="#159adf"/><stop offset=".68" stop-color="#159adf"/><stop offset=".68" stop-color="#159adf"/><stop offset=".68" stop-color="#159be0"/><stop offset=".69" stop-color="#149be0"/><stop offset=".69" stop-color="#149be0"/><stop offset=".69" stop-color="#149be0"/><stop offset=".7" stop-color="#149ce0"/><stop offset=".7" stop-color="#139ce1"/><stop offset=".71" stop-color="#139ce1"/><stop offset=".71" stop-color="#139ce1"/><stop offset=".71" stop-color="#139de1"/><stop offset=".72" stop-color="#129de1"/><stop offset=".72" stop-color="#129de2"/><stop offset=".73" stop-color="#129de2"/><stop offset=".73" stop-color="#129ee2"/><stop offset=".73" stop-color="#119ee2"/><stop offset=".74" stop-color="#119ee2"/><stop offset=".74" stop-color="#119ee2"/><stop offset=".75" stop-color="#119ee3"/><stop offset=".75" stop-color="#109fe3"/><stop offset=".75" stop-color="#109fe3"/><stop offset=".76" stop-color="#109fe3"/><stop offset=".76" stop-color="#109fe3"/><stop offset=".77" stop-color="#0fa0e4"/><stop offset=".77" stop-color="#0fa0e4"/><stop offset=".77" stop-color="#0fa0e4"/><stop offset=".78" stop-color="#0fa0e4"/><stop offset=".78" stop-color="#0ea1e4"/><stop offset=".79" stop-color="#0ea1e5"/><stop offset=".79" stop-color="#0ea1e5"/><stop offset=".79" stop-color="#0ea1e5"/><stop offset=".8" stop-color="#0da2e5"/><stop offset=".8" stop-color="#0da2e5"/><stop offset=".81" stop-color="#0da2e6"/><stop offset=".81" stop-color="#0da2e6"/><stop offset=".81" stop-color="#0ca2e6"/><stop offset=".82" stop-color="#0ca3e6"/><stop offset=".82" stop-color="#0ca3e6"/><stop offset=".82" stop-color="#0ca3e6"/><stop offset=".83" stop-color="#0ba3e7"/><stop offset=".83" stop-color="#0ba4e7"/><stop offset=".84" stop-color="#0ba4e7"/><stop offset=".84" stop-color="#0ba4e7"/><stop offset=".84" stop-color="#0aa4e7"/><stop offset=".85" stop-color="#0aa4e8"/><stop offset=".85" stop-color="#0aa5e8"/><stop offset=".85" stop-color="#0aa5e8"/><stop offset=".86" stop-color="#09a5e8"/><stop offset=".86" stop-color="#09a5e8"/><stop offset=".87" stop-color="#09a6e9"/><stop offset=".87" stop-color="#09a6e9"/><stop offset=".88" stop-color="#08a6e9"/><stop offset=".88" stop-color="#08a6e9"/><stop offset=".88" stop-color="#08a6e9"/><stop offset=".89" stop-color="#07a7ea"/><stop offset=".89" stop-color="#07a7ea"/><stop offset=".9" stop-color="#07a7ea"/><stop offset=".9" stop-color="#07a7ea"/><stop offset=".9" stop-color="#06a8ea"/><stop offset=".91" stop-color="#06a8ea"/><stop offset=".91" stop-color="#06a8eb"/><stop offset=".91" stop-color="#06a8eb"/><stop offset=".92" stop-color="#05a8eb"/><stop offset=".92" stop-color="#05a9eb"/><stop offset=".93" stop-color="#05a9eb"/><stop offset=".93" stop-color="#05a9ec"/><stop offset=".93" stop-color="#04a9ec"/><stop offset=".94" stop-color="#04aaec"/><stop offset=".94" stop-color="#04aaec"/><stop offset=".94" stop-color="#04aaec"/><stop offset=".95" stop-color="#03aaed"/><stop offset=".95" stop-color="#03aaed"/><stop offset=".96" stop-color="#03abed"/><stop offset=".96" stop-color="#03abed"/><stop offset=".96" stop-color="#02abed"/><stop offset=".97" stop-color="#02abee"/><stop offset=".97" stop-color="#02acee"/><stop offset=".98" stop-color="#02acee"/><stop offset=".98" stop-color="#01acee"/><stop offset=".98" stop-color="#01acee"/><stop offset=".99" stop-color="#01acee"/><stop offset=".99" stop-color="#01adef"/><stop offset="1" stop-color="#00adef"/><stop offset="1" stop-color="#00adef"/></linearGradient><linearGradient id="m" x1="-.36" x2="1.67" y1="0" y2="0" gradientTransform="rotate(45 -519.62 546.47)scale(81.368)" gradientUnits="userSpaceOnUse"><stop offset="0" stop-color="#3871c1"/><stop offset=".13" stop-color="#3871c1"/><stop offset=".16" stop-color="#3871c1"/><stop offset=".17" stop-color="#3871c1"/><stop offset=".18" stop-color="#3872c1"/><stop offset=".18" stop-color="#3872c2"/><stop offset=".19" stop-color="#3773c2"/><stop offset=".19" stop-color="#3773c2"/><stop offset=".2" stop-color="#3774c3"/><stop offset=".2" stop-color="#3674c3"/><stop offset=".2" stop-color="#3675c4"/><stop offset=".21" stop-color="#3575c4"/><stop offset=".21" stop-color="#3576c4"/><stop offset=".21" stop-color="#3577c5"/><stop offset=".22" stop-color="#3477c5"/><stop offset=".22" stop-color="#3478c6"/><stop offset=".23" stop-color="#3378c6"/><stop offset=".23" stop-color="#3379c6"/><stop offset=".23" stop-color="#3279c7"/><stop offset=".24" stop-color="#327ac7"/><stop offset=".24" stop-color="#327ac7"/><stop offset=".25" stop-color="#317bc8"/><stop offset=".25" stop-color="#317bc8"/><stop offset=".25" stop-color="#307cc8"/><stop offset=".26" stop-color="#307cc9"/><stop offset=".26" stop-color="#307dc9"/><stop offset=".27" stop-color="#2f7dca"/><stop offset=".27" stop-color="#2f7eca"/><stop offset=".27" stop-color="#2e7fca"/><stop offset=".28" stop-color="#2e7fcb"/><stop offset=".28" stop-color="#2d80cb"/><stop offset=".28" stop-color="#2d80cb"/><stop offset=".29" stop-color="#2d81cc"/><stop offset=".29" stop-color="#2c81cc"/><stop offset=".3" stop-color="#2c82cd"/><stop offset=".3" stop-color="#2b82cd"/><stop offset=".3" stop-color="#2b83cd"/><stop offset=".31" stop-color="#2a83ce"/><stop offset=".31" stop-color="#2a84ce"/><stop offset=".32" stop-color="#2a84ce"/><stop offset=".32" stop-color="#2985cf"/><stop offset=".32" stop-color="#2985cf"/><stop offset=".33" stop-color="#2886d0"/><stop offset=".33" stop-color="#2886d0"/><stop offset=".34" stop-color="#2787d0"/><stop offset=".34" stop-color="#2787d1"/><stop offset=".34" stop-color="#2688d1"/><stop offset=".35" stop-color="#2688d1"/><stop offset=".35" stop-color="#2689d2"/><stop offset=".35" stop-color="#2589d2"/><stop offset=".36" stop-color="#258ad2"/><stop offset=".36" stop-color="#248ad3"/><stop offset=".37" stop-color="#248bd3"/><stop offset=".37" stop-color="#238bd4"/><stop offset=".38" stop-color="#238cd4"/><stop offset=".38" stop-color="#238cd4"/><stop offset=".38" stop-color="#228dd5"/><stop offset=".39" stop-color="#228dd5"/><stop offset=".39" stop-color="#218ed5"/><stop offset=".4" stop-color="#218ed6"/><stop offset=".4" stop-color="#208fd6"/><stop offset=".4" stop-color="#208fd7"/><stop offset=".41" stop-color="#1f90d7"/><stop offset=".41" stop-color="#1f90d7"/><stop offset=".41" stop-color="#1f90d8"/><stop offset=".42" stop-color="#1e91d8"/><stop offset=".42" stop-color="#1e91d8"/><stop offset=".43" stop-color="#1d92d9"/><stop offset=".43" stop-color="#1d92d9"/><stop offset=".43" stop-color="#1c93d9"/><stop offset=".44" stop-color="#1c93da"/><stop offset=".44" stop-color="#1b94da"/><stop offset=".45" stop-color="#1b94db"/><stop offset=".45" stop-color="#1b95db"/><stop offset=".45" stop-color="#1a95db"/><stop offset=".46" stop-color="#1a96dc"/><stop offset=".46" stop-color="#1996dc"/><stop offset=".47" stop-color="#1997dc"/><stop offset=".47" stop-color="#1897dd"/><stop offset=".47" stop-color="#1897dd"/><stop offset=".48" stop-color="#1798dd"/><stop offset=".48" stop-color="#1798de"/><stop offset=".48" stop-color="#1699de"/><stop offset=".49" stop-color="#1699de"/><stop offset=".49" stop-color="#159adf"/><stop offset=".5" stop-color="#159adf"/><stop offset=".5" stop-color="#159be0"/><stop offset=".5" stop-color="#149be0"/><stop offset=".51" stop-color="#149ce0"/><stop offset=".51" stop-color="#139ce1"/><stop offset=".52" stop-color="#139ce1"/><stop offset=".52" stop-color="#129de1"/><stop offset=".52" stop-color="#129de2"/><stop offset=".53" stop-color="#119ee2"/><stop offset=".53" stop-color="#119ee2"/><stop offset=".54" stop-color="#109fe3"/><stop offset=".54" stop-color="#109fe3"/><stop offset=".54" stop-color="#0fa0e4"/><stop offset=".55" stop-color="#0fa0e4"/><stop offset=".56" stop-color="#0ea1e5"/><stop offset=".56" stop-color="#0ea1e5"/><stop offset=".56" stop-color="#0da2e5"/><stop offset=".57" stop-color="#0da2e6"/><stop offset=".57" stop-color="#0ca3e6"/><stop offset=".57" stop-color="#0ca3e6"/><stop offset=".58" stop-color="#0ba3e7"/><stop offset=".58" stop-color="#0ba4e7"/><stop offset=".59" stop-color="#0aa4e7"/><stop offset=".59" stop-color="#0aa5e8"/><stop offset=".59" stop-color="#09a5e8"/><stop offset=".6" stop-color="#09a5e9"/><stop offset=".6" stop-color="#08a6e9"/><stop offset=".6" stop-color="#08a6e9"/><stop offset=".61" stop-color="#07a7ea"/><stop offset=".61" stop-color="#07a7ea"/><stop offset=".62" stop-color="#06a8ea"/><stop offset=".62" stop-color="#06a8eb"/><stop offset=".63" stop-color="#06a8eb"/><stop offset=".63" stop-color="#05a9eb"/><stop offset=".63" stop-color="#05a9ec"/><stop offset=".64" stop-color="#04aaec"/><stop offset=".64" stop-color="#04aaec"/><stop offset=".65" stop-color="#03aaed"/><stop offset=".65" stop-color="#03abed"/><stop offset=".65" stop-color="#02abed"/><stop offset=".66" stop-color="#02acee"/><stop offset=".66" stop-color="#01acee"/><stop offset=".66" stop-color="#01acef"/><stop offset=".67" stop-color="#00adef"/><stop offset="1" stop-color="#00adef"/></linearGradient></defs><g clip-path="url(#a)" transform="translate(-467.18 -1029.07)scale(2.42)"><path fill="url(#b)" d="M405.74 374.56 289 491.29l116.74 116.74L522.48 491.3Zm0 0"/></g><g clip-path="url(#c)" transform="translate(-467.18 -1029.28)scale(2.42)"><g clip-path="url(#d)"><path fill="url(#g)" d="M338.52 310.4 159.1 489.83l179.43 179.44 179.44-179.44Zm0 0"/></g></g><g clip-path="url(#h)" transform="translate(-467.18 -1029.07)scale(2.42)"><g clip-path="url(#i)"><path fill="url(#j)" d="M333.59 397.01 156.34 574.26 333.6 751.5l177.25-177.25Zm0 0" clip-path="none"/></g></g><g clip-path="url(#k)" transform="translate(-466.97 -1029.66)scale(2.42)"><g clip-path="url(#l)"><path fill="url(#m)" d="M266.3 453.58 149.2 570.7l117.12 117.12L383.43 570.7Zm0 0"/></g></g><use width="100%" height="100%" x="492" y="633.2" fill="#21211e" stroke="#fbffff" stroke-linecap="square" stroke-linejoin="round" stroke-width="0" paint-order="stroke fill markers" transform="matrix(.987 0 0 .995 228.22 -219.56)" href="#n"/><use width="100%" height="100%" x="644.17" y="633.2" fill="#21211e" stroke="#fbffff" stroke-linecap="square" stroke-linejoin="round" stroke-width="0" transform="matrix(.987 0 0 .995 228.22 -219.56)" href="#o"/><use width="100%" height="100%" x="767.09" y="633.2" fill="#21211e" stroke="#fbffff" stroke-linecap="square" stroke-linejoin="round" stroke-width="0" transform="matrix(.987 0 0 .995 228.22 -219.56)" href="#p"/><use width="100%" height="100%" x="907.46" y="633.2" fill="#21211e" stroke="#fbffff" stroke-linecap="square" stroke-linejoin="round" stroke-width="0" transform="matrix(.987 0 0 .995 234.57 -219.56)" href="#q"/><use width="100%" height="100%" x="1016.26" y="633.2" fill="#21211e" stroke="#fbffff" stroke-linecap="square" stroke-linejoin="round" stroke-width="0" transform="matrix(.987 0 0 .995 251.5 -219.56)" href="#r"/><use width="100%" height="100%" x="1094.78" y="633.2" fill="#21211e" stroke="#fbffff" stroke-linecap="round" stroke-linejoin="round" stroke-width="0" paint-order="fill markers stroke" transform="matrix(.987 0 0 .995 247.26 -219.56)" href="#s"/><path fill="#2a83ce" d="m1455.57 397.77 16.22-9.9c3.13 5.6 5.97 10.33 12.8 10.33 6.54 0 10.67-2.58 10.67-12.62v-68.25h19.91v68.54c0 20.79-12.09 30.25-29.73 30.25-15.93 0-25.18-8.32-29.87-18.35m70.42-2.15 16.22-9.47c4.26 7.03 9.81 12.2 19.63 12.2 8.25 0 13.51-4.17 13.51-9.9 0-6.88-5.4-9.32-14.51-13.34l-4.98-2.15c-14.37-6.16-23.9-13.9-23.9-30.25 0-15.05 11.38-26.52 29.17-26.52 12.66 0 21.76 4.44 28.3 16.06l-15.5 10.03c-3.42-6.16-7.11-8.6-12.8-8.6-5.84 0-9.54 3.73-9.54 8.6 0 6.02 3.7 8.46 12.24 12.19l4.98 2.15c16.92 7.31 26.46 14.77 26.46 31.54 0 18.07-14.3 27.96-33 27.96s-30.45-8.89-36.28-20.5z" paint-order="stroke fill markers"/><script/></svg>